<svg xmlns="http://www.w3.org/2000/svg" width="1300" height="760" viewBox="0 0 1300 760">
  <rect width="1300" height="760" fill="#0d1117"/>
  <text x="650" y="58" fill="#ffffff" font-size="36" font-family="Arial, sans-serif" text-anchor="middle">Phase 1 — وضعیت نصب Windows / WSL2</text>
  <text x="650" y="98" fill="#9fb3c8" font-size="20" font-family="Arial, sans-serif" text-anchor="middle">Pilot machine — 2026-09-21</text>
  <g font-family="Arial, sans-serif" font-size="22">
    <text x="90" y="165" fill="#7ee787">✓</text><text x="135" y="165" fill="#fff">WSL package + VirtualMachinePlatform</text>
    <text x="90" y="215" fill="#7ee787">✓</text><text x="135" y="215" fill="#fff">Ubuntu 24.04 LTS installed</text>
    <text x="90" y="265" fill="#7ee787">✓</text><text x="135" y="265" fill="#fff">Linux user created: amirreza</text>
    <text x="90" y="315" fill="#7ee787">✓</text><text x="135" y="315" fill="#fff">Ubuntu running on WSL VERSION 2</text>
    <text x="90" y="365" fill="#7ee787">✓</text><text x="135" y="365" fill="#fff">RTX 3070 / 8192 MiB visible inside Ubuntu</text>
    <text x="90" y="415" fill="#7ee787">✓</text><text x="135" y="415" fill="#fff">Ubuntu repositories reachable</text>
    <text x="90" y="465" fill="#7ee787">✓</text><text x="135" y="465" fill="#fff">Base package upgrades completed</text>
    <text x="90" y="515" fill="#f2cc60">→</text><text x="135" y="515" fill="#fff">NEXT: WSL RAM / CPU / swap limits</text>
    <text x="90" y="565" fill="#8b949e">○</text><text x="135" y="565" fill="#c9d1d9">Verify systemd</text>
    <text x="90" y="615" fill="#8b949e">○</text><text x="135" y="615" fill="#c9d1d9">Install Docker Engine + Compose</text>
    <text x="90" y="665" fill="#8b949e">○</text><text x="135" y="665" fill="#c9d1d9">Reboot/autostart + backup baseline</text>
  </g>
  <rect x="780" y="170" width="420" height="360" rx="22" fill="#161b22" stroke="#30363d" stroke-width="3"/>
  <text x="990" y="220" fill="#ffffff" font-size="26" font-family="Arial, sans-serif" text-anchor="middle">Current foundation</text>
  <text x="990" y="280" fill="#7ee787" font-size="25" font-family="Arial, sans-serif" text-anchor="middle">Windows 11</text>
  <text x="990" y="325" fill="#8b949e" font-size="28" font-family="Arial, sans-serif" text-anchor="middle">↓</text>
  <text x="990" y="370" fill="#7ee787" font-size="25" font-family="Arial, sans-serif" text-anchor="middle">WSL2</text>
  <text x="990" y="415" fill="#8b949e" font-size="28" font-family="Arial, sans-serif" text-anchor="middle">↓</text>
  <text x="990" y="460" fill="#7ee787" font-size="25" font-family="Arial, sans-serif" text-anchor="middle">Ubuntu 24.04</text>
  <text x="990" y="505" fill="#58a6ff" font-size="22" font-family="Arial, sans-serif" text-anchor="middle">RTX 3070 visible</text>
</svg>